<svg xmlns="http://www.w3.org/2000/svg" viewBox="0 0 447.16 78.72"><defs><style>.cls-1{fill:#fff;}</style></defs><title>Emma_Logo_Footer_For_Dark</title><g id="Layer_2" data-name="Layer 2"><g id="Layer_1-2" data-name="Layer 1"><path class="cls-1" d="M46.8,66.62c8.14,0,14.36-3.64,20.35-9,2.15-1.82,3.22-3.32,6.22-3.32a4.43,4.43,0,0,1,4.39,4.07c0,5.46-8.14,11.78-12.21,14-7.82,4.71-15.64,6.32-25,6.32C20,78.61,0,65.23,0,43.16,0,17.89,21.85,2.78,45.3,2.78c13.39,0,30.85,6.22,30.85,22,0,11.14-10.71,21.85-48.73,25.71C29.45,60,37.06,66.62,46.8,66.62Zm5.89-43.49c0-5.67-3-9.74-9-9.74-12.64,0-18.32,16.6-17.57,27.1C36,39.63,52.69,35.67,52.69,23.13Z"/><path class="cls-1" d="M88.36,28.49c0-5.25.64-7.93-4.5-10.5-1.5-.64-3.1-1.6-3.1-4.07C80.65,8.57,99.18,2.78,103.89,2.78c5.14,0,6.21,7,6.75,10.82a31.68,31.68,0,0,1,24.2-10.82c9,0,17,4.07,21.53,12.21,5.89-8.78,15.53-12.21,25.71-12.21,6.64,0,14,2.25,18.95,7,5.68,5.46,6.64,13.06,6.64,20.67v25.7c0,7.39,0,9.21,2.25,10.82,2.36,1.07,3.75,2.14,3.75,4.71,0,4.71-3.75,4.82-7.07,4.82H184.22c-3.32,0-7.07-.11-7.07-4.82,0-2.57,1.39-3.64,3.75-4.71,2.25-1.61,2.25-3.43,2.25-10.82V34c0-7.17.1-17.56-9.75-17.56A12.55,12.55,0,0,0,163,21.53c-2.68,3.64-2.68,8.89-2.68,13.28V56.23c0,7.39,0,9.21,2.25,10.82,2.36,1.07,3.75,2.14,3.75,4.71,0,4.71-3.75,4.82-7.07,4.82H136.88c-3.32,0-7.07-.11-7.07-4.82,0-2.57,1.39-3.64,3.75-4.71,2.25-1.61,2.25-3.43,2.25-10.82V34c0-7.17.1-17.56-9.75-17.56a12.55,12.55,0,0,0-10.39,5.14C113,25.17,113,30.42,113,34.81V56.23c0,7.39,0,9.21,2.25,10.82,2.36,1.07,3.75,2.14,3.75,4.71,0,4.71-3.75,4.82-7.07,4.82H89.43c-3.32,0-7.07-.11-7.07-4.82,0-2.57,1.39-3.64,3.75-4.71,2.25-1.61,2.25-3.43,2.25-10.82Z"/><path class="cls-1" d="M226.1,28.49c0-5.25.64-7.93-4.5-10.5-1.5-.64-3.22-1.6-3.22-4.07,0-5.46,18.53-11.14,23.14-11.14,5.14,0,6.21,7,6.75,10.82a31.66,31.66,0,0,1,24.2-10.82c9,0,17,4.07,21.53,12.21,5.89-8.78,15.53-12.21,25.7-12.21,6.64,0,14,2.25,19,7,5.68,5.46,6.64,13.06,6.64,20.67v25.7c0,7.39,0,9.21,2.25,10.82,2.36,1.07,3.75,2.14,3.75,4.71,0,4.71-3.75,4.82-7.07,4.82H321.85c-3.32,0-7.07-.11-7.07-4.82,0-2.57,1.39-3.64,3.75-4.71,2.24-1.61,2.24-3.43,2.24-10.82V34c0-7.17.11-17.56-9.74-17.56a12.55,12.55,0,0,0-10.39,5.14C298,25.17,298,30.42,298,34.81V56.23c0,7.39,0,9.21,2.25,10.82,2.36,1.07,3.75,2.14,3.75,4.71,0,4.71-3.75,4.82-7.07,4.82H274.51c-3.32,0-7.07-.11-7.07-4.82,0-2.57,1.39-3.64,3.75-4.71,2.25-1.61,2.25-3.43,2.25-10.82V34c0-7.17.1-17.56-9.75-17.56a12.55,12.55,0,0,0-10.39,5.14c-2.68,3.64-2.68,8.89-2.68,13.28V56.23c0,7.39,0,9.21,2.25,10.82,2.36,1.07,3.75,2.14,3.75,4.71,0,4.71-3.75,4.82-7.07,4.82H227.06c-3.32,0-7.07-.11-7.07-4.82,0-2.57,1.39-3.64,3.75-4.71C226,65.44,226,63.62,226,56.23V28.49Z"/><path class="cls-1" d="M427.88,55.8c0,7.07.11,9.21,2.89,10.5,3.32,1.6,4.93,2.67,4.93,5.25,0,4.81-4.5,4.81-8.14,4.81H411.92c-7.5,0-7.5-2.57-7.5-9.31-5.14,8.46-14.14,11.56-23.35,11.56C366.94,78.61,354,70.8,354,55.27c0-21.43,27.09-26.67,43.7-26.67h5.14c-.11-8.89-4.4-15.75-14-15.75-9.22,0-10.5,9.64-20,9.64-4.39,0-9.32-1.93-9.32-7.17,0-10.5,23.78-12.54,31.17-12.54C416.85,2.78,428,14.35,428,32V55.8Zm-27.1-17.67c-10.71,0-21.53,5.25-21.53,17.35,0,5.68,3.32,10.82,9.54,10.82,4.92,0,8.88-3.22,11.56-7.18,3.22-5.14,3.22-5.25,3.22-20.88h-2.79Z"/><path class="cls-1" d="M440.94,12.53a6.15,6.15,0,0,1-6.21-6.21A6.24,6.24,0,0,1,440.94,0a6.15,6.15,0,0,1,6.22,6.21A6.17,6.17,0,0,1,440.94,12.53Zm0-11.46a4.93,4.93,0,0,0-5,5.14,4.86,4.86,0,0,0,5,5.14,4.93,4.93,0,0,0,5-5.14A4.87,4.87,0,0,0,440.94,1.07Zm1.4,8.36-1.07-2.36H440V9.43H438.8V2.89h2.36a2.13,2.13,0,0,1,2.36,2,2.12,2.12,0,0,1-1.18,1.92l1.18,2.58ZM441.27,4H440V6h1.29a1,1,0,0,0,1.17-1.07C442.44,4.28,441.91,4,441.27,4Z"/></g></g></svg>